<?xml version="1.0" standalone="no"?>
<!DOCTYPE svg PUBLIC "-//W3C//DTD SVG 20010904//EN"
 "http://www.w3.org/TR/2001/REC-SVG-20010904/DTD/svg10.dtd">
<svg version="1.0" xmlns="http://www.w3.org/2000/svg"
 width="901.000000pt" height="884.000000pt" viewBox="0 0 901.000000 884.000000"
 preserveAspectRatio="xMidYMid meet">
<metadata>
Created by potrace 1.16, written by Peter Selinger 2001-2019
</metadata>
<g transform="translate(0.000000,884.000000) scale(0.100000,-0.100000)"
fill="#000000" stroke="none">
<path d="M5660 8764 c-69 -36 -253 -131 -410 -211 -402 -205 -815 -417 -880
-451 l-55 -29 -2 -739 -2 -739 740 -723 739 -723 0 1085 0 1085 -82 44 c-84
45 -966 514 -1176 625 -63 33 -110 62 -105 65 28 16 448 232 1055 541 l326
167 706 -353 c388 -194 706 -355 706 -358 0 -3 -105 -62 -232 -130 -128 -68
-377 -201 -553 -295 -176 -94 -377 -202 -448 -239 l-127 -68 0 -1140 c0 -628
-1 -1142 -2 -1143 -2 -2 -351 -177 -776 -389 -602 -301 -776 -384 -790 -377
-9 5 -350 343 -756 750 l-739 739 -191 -95 c-105 -52 -193 -97 -196 -99 -2 -3
82 -91 188 -197 l192 -192 0 -53 c0 -28 -1 -52 -3 -52 -5 0 -1230 1237 -1376
1388 -53 56 -76 73 -93 70 l-23 -3 0 -1505 0 -1505 1514 -757 1514 -757 486
246 c267 135 635 321 816 413 182 92 607 307 945 478 338 171 649 328 690 349
l75 38 0 2274 0 2274 -755 378 c-415 208 -764 378 -775 378 -11 0 -76 -29
-145 -65z m-3931 -2729 c174 -176 488 -494 698 -707 210 -214 388 -388 396
-388 35 0 37 19 37 332 0 169 3 308 6 308 3 0 325 -318 715 -707 l709 -707 0
-1033 c0 -568 -2 -1033 -5 -1033 -3 0 -662 329 -1465 730 l-1460 730 0 1428 1
1427 25 -30 c15 -16 169 -174 343 -350z m5220 -1114 c7 -11 8 -174 3 -462 -8
-514 -3 -488 -107 -545 -33 -19 -63 -34 -67 -34 -5 0 -8 21 -8 46 0 37 5 52
25 70 l25 23 0 390 c0 384 0 389 -20 384 -17 -4 -20 -1 -19 23 2 58 14 79 59
101 55 28 96 29 109 4z m-217 -160 c-19 -15 -20 -36 -27 -414 l-7 -399 21 7
c19 6 21 3 21 -44 l0 -51 -50 -25 c-62 -31 -95 -32 -111 -3 -18 34 -4 889 15
926 19 37 44 58 102 86 l49 24 3 -46 c3 -36 -1 -49 -16 -61z m-542 -216 c10
-12 11 -108 4 -470 -9 -439 -10 -455 -30 -482 -19 -25 -118 -93 -136 -93 -5 0
-8 24 -8 54 0 46 3 56 20 61 19 6 20 15 20 254 0 136 3 317 7 401 l6 152 -21
-6 c-21 -7 -22 -4 -22 43 0 50 0 51 48 75 54 29 94 33 112 11z m-196 -107 c-4
-29 -10 -54 -13 -56 -27 -12 -29 -31 -33 -415 -4 -380 -3 -397 14 -391 16 5
18 -1 18 -49 l0 -55 -49 -21 c-66 -28 -99 -27 -112 3 -8 16 -8 154 -2 467 8
434 8 445 30 475 19 26 122 93 146 94 4 0 5 -24 1 -52z m-574 -276 l22 -18 -8
-472 -7 -473 -58 -30 c-32 -16 -62 -29 -65 -29 -4 0 -5 202 -1 450 l6 450 -30
-15 -29 -16 0 55 c0 52 2 56 32 72 30 16 96 42 109 43 4 1 17 -7 29 -17z
m-527 -283 c6 -10 7 -178 1 -484 l-9 -469 -55 -28 c-30 -15 -59 -28 -64 -28
-6 0 -7 180 -3 450 l7 450 -30 -15 -30 -16 0 54 0 53 53 27 c57 29 114 32 130
6z"/>
<path d="M2097 4910 c-72 -37 -147 -88 -147 -101 0 -5 16 -48 34 -95 l35 -85
-32 -43 -33 -42 -74 34 c-70 31 -75 32 -87 16 -25 -35 -55 -130 -60 -195 l-6
-67 77 -51 76 -52 0 -70 0 -69 -67 -33 c-64 -31 -68 -35 -65 -65 3 -43 103
-272 124 -285 15 -10 71 2 134 29 6 2 32 -23 58 -57 l48 -62 -18 -88 c-17 -87
-17 -89 2 -110 23 -26 114 -89 171 -118 50 -25 50 -25 79 79 18 64 24 75 42
74 12 0 44 -1 70 -2 l48 -2 33 -90 c19 -50 40 -95 48 -101 15 -13 60 1 152 49
79 41 80 46 46 151 l-28 90 36 40 c20 23 37 46 37 51 0 6 17 2 38 -9 l37 -19
0 -118 0 -118 55 -22 c46 -18 57 -28 69 -58 14 -37 14 -37 -22 -74 -21 -21
-37 -46 -37 -55 0 -26 58 -138 88 -169 32 -35 46 -35 89 -2 l34 25 32 -28 c31
-27 33 -31 32 -103 l0 -75 36 -17 c20 -9 64 -24 98 -33 82 -21 91 -14 91 71 0
60 2 64 23 64 12 0 31 3 43 6 17 4 28 -5 57 -45 22 -31 45 -51 56 -51 23 0
117 83 126 111 4 12 -5 39 -26 75 -29 52 -31 59 -20 95 9 30 16 39 29 35 63
-18 90 -18 101 2 13 24 15 221 3 239 -5 7 -32 21 -62 31 -47 16 -55 23 -67 58
l-14 39 41 33 c22 19 40 41 40 49 0 39 -117 203 -144 203 -7 0 -27 -14 -45
-30 l-32 -31 -28 20 c-26 19 -29 28 -36 96 -6 63 -11 78 -29 90 -24 16 -170
40 -185 30 -5 -3 -13 -31 -17 -63 -11 -91 -38 -96 -86 -17 -37 62 -56 68 -102
32 l-29 -24 -72 50 -72 49 -6 62 c-3 33 -9 69 -12 78 -5 13 9 25 64 53 48 24
71 41 71 53 0 22 -60 173 -101 254 -17 33 -36 58 -45 58 -9 0 -45 -12 -81 -26
-62 -25 -66 -25 -76 -9 -5 10 -25 34 -43 55 l-34 37 16 79 c8 43 13 88 10 99
-5 19 -132 110 -190 137 -39 17 -50 5 -70 -75 -11 -42 -22 -80 -25 -85 -4 -6
-30 -7 -64 -3 l-58 6 -38 90 c-44 106 -54 111 -144 65z m118 -137 c20 -51 42
-94 49 -94 6 -1 34 -1 61 0 28 2 62 -2 77 -8 33 -12 37 -7 63 92 10 37 21 70
25 72 8 5 81 -34 118 -63 l24 -18 -17 -88 -16 -88 48 -52 c26 -29 59 -67 73
-85 l25 -32 70 30 c39 16 73 27 77 23 9 -10 90 -203 86 -207 -1 -1 -34 -18
-71 -36 -66 -32 -68 -34 -63 -64 4 -16 9 -66 12 -110 7 -91 12 -98 95 -152
l59 -38 -6 -55 c-6 -52 -36 -140 -49 -140 -3 0 -32 14 -65 30 -33 17 -66 30
-75 30 -8 0 -24 -18 -35 -40 -11 -22 -33 -49 -50 -61 -16 -12 -31 -28 -34 -36
-3 -7 8 -49 24 -94 17 -44 30 -84 30 -88 0 -10 -113 -71 -131 -71 -8 0 -29 39
-49 93 l-35 92 -80 7 c-44 4 -91 8 -104 10 -23 3 -26 -3 -43 -72 -10 -41 -21
-81 -23 -87 -3 -9 -26 1 -70 28 -36 23 -68 46 -71 51 -3 5 2 49 12 99 l18 89
-41 42 c-22 24 -53 62 -67 86 -30 48 -40 50 -115 21 -32 -12 -58 -16 -63 -11
-5 5 -27 51 -48 103 l-39 94 67 33 c37 18 69 38 73 44 4 5 3 26 -2 47 -5 20
-9 66 -9 102 l0 65 -72 50 c-66 45 -73 52 -70 79 5 44 34 135 44 135 5 0 40
-16 78 -35 l70 -35 24 37 c13 21 35 49 50 62 14 14 26 30 26 37 0 7 -14 49
-31 93 -18 44 -29 86 -26 93 4 13 146 92 153 86 1 -2 19 -45 39 -95z m1223
-899 c20 -6 22 -12 22 -75 0 -59 3 -72 21 -87 12 -9 36 -29 54 -44 40 -34 58
-35 93 -3 15 14 31 24 37 22 5 -2 23 -22 39 -44 l29 -41 -43 -41 c-23 -22 -40
-46 -37 -53 3 -7 13 -38 22 -68 25 -81 27 -84 84 -99 l51 -14 0 -69 0 -69 -60
7 c-52 6 -60 4 -60 -10 0 -10 -10 -40 -22 -68 l-22 -52 33 -59 32 -60 -27 -28
c-15 -16 -31 -29 -35 -29 -4 0 -22 23 -40 51 -28 45 -35 50 -58 44 -14 -3 -48
-9 -76 -12 -27 -3 -53 -11 -57 -17 -4 -6 -8 -37 -8 -68 0 -32 -4 -58 -8 -58
-5 0 -29 7 -55 16 l-47 16 0 73 c0 73 0 73 -36 95 -19 12 -42 33 -51 46 -20
31 -44 30 -82 -2 -36 -30 -50 -24 -81 35 l-18 36 40 42 41 42 -17 40 c-9 23
-16 55 -16 71 0 32 -19 49 -82 71 -38 13 -38 13 -38 70 0 88 2 90 62 73 27 -9
51 -14 52 -12 1 2 15 29 31 61 l29 58 -33 60 -33 61 33 34 c18 19 36 34 40 34
4 0 22 -25 40 -56 31 -55 32 -56 68 -49 20 3 45 7 56 8 21 2 32 31 34 90 1 36
2 37 39 37 20 0 47 -3 60 -6z"/>
<path d="M2284 4381 c-140 -64 -165 -298 -50 -467 57 -84 168 -144 240 -130
58 12 111 52 142 108 26 48 29 62 29 148 0 86 -3 101 -31 161 -40 84 -91 141
-157 173 -61 31 -116 33 -173 7z m165 -71 c58 -29 108 -94 131 -168 23 -74 24
-96 9 -159 -15 -59 -71 -119 -120 -128 -86 -16 -169 38 -221 142 -97 198 32
400 201 313z"/>
<path d="M3277 3559 c-44 -33 -67 -89 -67 -162 0 -148 82 -257 198 -264 111
-8 169 66 160 203 -9 138 -101 244 -212 244 -36 -1 -59 -7 -79 -21z m179 -93
c50 -53 70 -119 53 -181 -39 -140 -207 -99 -241 59 -20 93 26 166 105 166 35
0 46 -6 83 -44z"/>
<path d="M2603 7172 c-117 -59 -213 -109 -213 -112 0 -3 98 -103 218 -223
l219 -219 223 112 223 112 -219 219 c-120 120 -223 219 -229 218 -5 0 -106
-48 -222 -107z"/>
<path d="M2076 6909 l-219 -111 221 -221 222 -222 221 110 c121 61 223 114
226 118 7 11 -421 437 -438 436 -8 0 -113 -50 -233 -110z"/>
<path d="M3102 6677 l-222 -112 228 -228 229 -229 223 112 223 112 -229 229
c-126 126 -229 229 -229 228 0 0 -100 -50 -223 -112z"/>
<path d="M1586 6664 l-189 -96 221 -221 222 -222 197 98 196 99 -219 219
c-120 120 -223 219 -229 218 -5 0 -95 -43 -199 -95z"/>
<path d="M2583 6417 c-123 -61 -223 -114 -223 -117 0 -3 101 -106 225 -230
l225 -225 221 110 c121 61 223 114 226 118 4 7 -439 458 -449 456 -2 0 -103
-50 -225 -112z"/>
<path d="M4092 6402 l-192 -97 238 -238 239 -239 202 102 202 101 -237 232
c-130 128 -242 233 -248 234 -6 1 -98 -42 -204 -95z"/>
<path d="M2093 6172 c-106 -53 -193 -99 -193 -102 0 -3 101 -106 225 -230
l225 -225 191 95 c105 52 192 98 194 101 2 3 -98 107 -223 231 l-227 226 -192
-96z"/>
<path d="M3613 6162 c-117 -59 -213 -109 -213 -112 0 -3 106 -111 235 -240
l235 -235 211 105 c116 58 213 109 216 113 4 7 -458 478 -468 476 -2 0 -100
-48 -216 -107z"/>
<path d="M3086 5899 l-219 -111 238 -238 238 -238 230 114 229 115 -235 234
c-129 129 -240 235 -248 234 -8 0 -113 -50 -233 -110z"/>
<path d="M4633 5877 c-100 -51 -185 -96 -189 -100 -5 -4 93 -108 216 -232
l223 -223 201 100 c111 55 203 102 206 104 7 8 -442 439 -459 441 -9 1 -98
-40 -198 -90z"/>
<path d="M4150 5634 c-113 -57 -209 -105 -215 -107 -5 -3 92 -107 216 -232
l226 -227 214 107 c118 59 216 109 218 111 4 4 -412 421 -439 440 -12 8 -61
-12 -220 -92z"/>
<path d="M3621 5369 l-224 -111 226 -226 227 -227 229 115 230 114 -224 223
c-122 123 -227 223 -232 223 -5 0 -109 -50 -232 -111z"/>
<path d="M5141 5369 l-204 -101 199 -201 c109 -111 200 -203 202 -206 3 -6
422 201 422 209 0 6 -406 400 -412 400 -2 0 -95 -45 -207 -101z"/>
<path d="M4648 5123 c-115 -58 -208 -108 -208 -112 0 -3 90 -96 200 -206 l200
-200 211 105 c116 58 213 108 216 113 5 8 -390 407 -403 406 -5 0 -102 -48
-216 -106z"/>
<path d="M4140 4870 c-118 -60 -219 -111 -225 -114 -5 -2 82 -96 194 -209
l204 -205 230 114 229 115 -205 205 c-113 112 -207 204 -209 203 -2 0 -100
-50 -218 -109z"/>
<path d="M6435 1405 c-172 -32 -317 -125 -391 -251 -61 -104 -86 -250 -65
-384 43 -278 280 -449 626 -450 186 0 356 58 467 159 57 52 111 140 123 201 3
19 9 43 11 53 5 16 -6 17 -140 17 l-144 0 -16 -48 c-20 -59 -73 -113 -141
-144 -42 -19 -67 -23 -160 -23 -100 0 -115 3 -167 28 -117 57 -173 157 -173
307 0 114 24 178 91 247 41 41 64 55 119 72 136 42 290 16 370 -63 23 -24 48
-59 54 -79 l13 -37 145 0 146 0 -7 41 c-18 112 -121 234 -250 298 -131 64
-343 87 -511 56z"/>
<path d="M130 865 l0 -527 358 5 c277 3 368 8 407 19 178 54 299 178 340 349
17 76 20 217 4 291 -37 175 -153 302 -324 359 -66 21 -89 23 -427 27 l-358 4
0 -527z m661 287 c126 -50 182 -136 183 -283 0 -73 -4 -93 -27 -142 -33 -67
-81 -109 -157 -139 -46 -18 -82 -22 -222 -26 l-168 -4 0 312 0 312 168 -4
c140 -4 176 -8 223 -26z"/>
<path d="M1430 865 l0 -525 130 0 130 0 0 525 0 525 -130 0 -130 0 0 -525z"/>
<path d="M1940 865 l0 -525 130 0 130 0 0 210 0 210 290 0 290 0 0 105 0 105
-290 0 -290 0 0 105 0 105 315 0 315 0 0 105 0 105 -445 0 -445 0 0 -525z"/>
<path d="M3125 1158 c-153 -325 -221 -468 -309 -652 -42 -88 -76 -161 -76
-163 0 -1 64 -3 143 -3 l142 0 46 113 45 112 234 0 233 0 45 -112 46 -113 148
0 148 0 -16 33 c-8 17 -115 253 -238 522 l-223 490 -129 3 -129 2 -110 -232z
m290 -219 c36 -83 64 -153 62 -155 -2 -3 -63 -3 -135 -2 l-131 3 55 130 c30
72 59 140 64 153 5 12 11 22 14 22 2 0 34 -68 71 -151z"/>
<path d="M3830 1285 l0 -105 180 0 180 0 0 -420 0 -420 130 0 130 0 0 420 0
420 180 0 180 0 0 105 0 105 -490 0 -490 0 0 -105z"/>
<path d="M4920 865 l0 -525 465 0 465 0 0 110 0 110 -335 0 -335 0 0 115 0
115 300 0 300 0 0 105 0 105 -300 0 -300 0 0 90 0 90 335 0 335 0 0 105 0 105
-465 0 -465 0 0 -525z"/>
<path d="M7380 865 l0 -525 130 0 130 0 0 220 0 220 255 0 255 0 0 -220 0
-220 130 0 130 0 0 525 0 525 -130 0 -130 0 0 -195 0 -195 -255 0 -255 0 0
195 0 195 -130 0 -130 0 0 -525z"/>
<path d="M8725 1376 c-64 -29 -115 -110 -115 -184 0 -50 36 -119 83 -156 72
-58 198 -45 264 26 31 32 53 90 53 135 -1 73 -58 158 -123 182 -39 15 -126 13
-162 -3z m134 -16 c39 -11 86 -51 107 -92 18 -35 18 -111 -1 -147 -36 -70
-128 -112 -197 -92 -78 24 -128 88 -128 166 0 117 107 197 219 165z"/>
<path d="M8730 1200 c0 -103 1 -110 20 -110 17 0 20 7 20 45 0 41 2 45 24 45
19 0 28 -9 43 -45 14 -34 23 -45 41 -45 26 0 27 14 3 60 -19 34 -19 34 5 53
31 24 32 70 2 91 -15 11 -45 16 -90 16 l-68 0 0 -110z"/>
</g>
</svg>
